<?xml version="1.0" encoding="UTF-8" standalone="no"?>
<svg
   xmlns:dc="http://purl.org/dc/elements/1.1/"
   xmlns:cc="http://creativecommons.org/ns#"
   xmlns:rdf="http://www.w3.org/1999/02/22-rdf-syntax-ns#"
   xmlns:svg="http://www.w3.org/2000/svg"
   xmlns="http://www.w3.org/2000/svg"
   viewBox="0 0 720 748.1333"
   height="748.1333"
   width="720"
   xml:space="preserve"
   id="svg2"
   version="1.1"><metadata
     id="metadata8"><rdf:RDF><cc:Work
         rdf:about=""><dc:format>image/svg+xml</dc:format><dc:type
           rdf:resource="http://purl.org/dc/dcmitype/StillImage" /></cc:Work></rdf:RDF></metadata><defs
     id="defs6" /><g
     transform="matrix(1.3333333,0,0,-1.3333333,0,748.13333)"
     id="g10"><g
       transform="scale(0.1)"
       id="g12"><path
         id="path14"
         style="fill:#f1419a;fill-opacity:1;fill-rule:nonzero;stroke:none"
         d="M 453.621,226.82 C 453.621,101.551 352.074,0 226.813,0 101.547,0 0,101.551 0,226.82 c 0,125.262 101.547,226.809 226.813,226.809 125.261,0 226.808,-101.547 226.808,-226.809" /><path
         id="path16"
         style="fill:#f1419a;fill-opacity:1;fill-rule:nonzero;stroke:none"
         d="m 4283.94,2992.32 c -125.28,0 -226.82,-101.55 -226.82,-226.81 0,-13.16 1.73,-25.86 3.88,-38.4 l -987.61,-822.1 c -29.06,13.52 -61.13,21.62 -95.29,21.62 -34.26,0 -66.4,-8.14 -95.51,-21.75 l -1010.65,839.74 c 0.65,6.98 2.11,13.73 2.11,20.89 0,125.26 -101.55,226.81 -226.81,226.81 -125.27,0 -226.81,-101.55 -226.81,-226.81 0,-41.66 12.04,-80.19 31.64,-113.74 L 142.07,273.5 311.539,180.172 1612.61,2542.19 c 11.37,-1.76 22.77,-3.5 34.63,-3.5 46.08,0 88.81,13.93 124.61,37.54 l 987.28,-820.26 c -4.63,-18.06 -7.85,-36.66 -7.85,-56.16 0,-125.26 101.55,-226.8 226.82,-226.8 125.26,0 226.8,101.54 226.8,226.8 0,19.56 -3.24,38.21 -7.9,56.31 l 976.12,812.62 c 32.9,-18.58 70.35,-30.05 110.82,-30.05 125.26,0 226.8,101.54 226.8,226.82 0,125.26 -101.54,226.81 -226.8,226.81" /><path
         id="path18"
         style="fill:#f1419a;fill-opacity:1;fill-rule:nonzero;stroke:none"
         d="m 5127.56,2400.94 c -114.24,149.06 -255.63,273.32 -424.22,373.04 0.06,-2.89 0.86,-5.58 0.86,-8.48 0,-231.72 -188.55,-420.27 -420.26,-420.27 -23.25,0 -46.58,2.08 -69.62,6.05 l -816.91,-680.03 c -14.73,-218.49 -197.14,-391.73 -419.31,-391.73 -221.99,0 -404.39,173.06 -419.32,391.36 l -823.04,683.81 c -2.08,-0.48 -4.16,-0.95 -6.24,-1.33 L 626.316,350.609 c 12.258,-39.379 20.75,-80.41 20.75,-123.777 0,-83.652 -25.23,-161.2617 -67.539,-226.8202812 H 3091.61 C 3839.36,0.0117188 4411.64,133.27 4806.98,400.531 5202.32,667.789 5400,1047.59 5400,1539.17 c 0,336.85 -91.06,624.11 -272.44,861.77" /><path
         id="path20"
         style="fill:#43b2c6;fill-opacity:1;fill-rule:nonzero;stroke:none"
         d="m 4566.38,5214.23 c -373.88,265.04 -919.5,396.82 -1635.42,396.82 H 61.3984 V 612.941 c 18.1133,7.789 37.4571,12.918 56.7776,18.118 L 1239.24,2666.31 c -8.12,32.5 -12.28,65.84 -12.28,99.19 0,231.71 188.55,420.26 420.27,420.26 206.68,0 378.98,-149.91 413.83,-346.77 l 868.58,-721.69 c 16.05,1.89 32.21,2.84 48.46,2.84 16.05,0 32.11,-0.95 47.98,-2.84 l 840.8,699.96 c 25.51,207.34 202.82,368.5 417.06,368.5 117.93,0 224.29,-49.19 300.7,-127.7 140.39,103.05 257.32,225.04 346.73,368.99 130.29,210.99 196.19,450.13 196.19,717.39 0,448.65 -187.32,805.49 -561.18,1069.79" /></g></g></svg>
