<?xml version="1.0" encoding="UTF-8" standalone="no"?>
<svg
   xmlns:dc="http://purl.org/dc/elements/1.1/"
   xmlns:cc="http://creativecommons.org/ns#"
   xmlns:rdf="http://www.w3.org/1999/02/22-rdf-syntax-ns#"
   xmlns:svg="http://www.w3.org/2000/svg"
   xmlns="http://www.w3.org/2000/svg"
   viewBox="0 0 1472 325.89334"
   height="325.89334"
   width="1472"
   xml:space="preserve"
   id="svg2"
   version="1.1"><metadata
     id="metadata8"><rdf:RDF><cc:Work
         rdf:about=""><dc:format>image/svg+xml</dc:format><dc:type
           rdf:resource="http://purl.org/dc/dcmitype/StillImage" /></cc:Work></rdf:RDF></metadata><defs
     id="defs6" /><g
     transform="matrix(1.3333333,0,0,-1.3333333,0,325.89333)"
     id="g10"><g
       transform="scale(0.1)"
       id="g12"><path
         id="path14"
         style="fill:#43b2c6;fill-opacity:1;fill-rule:nonzero;stroke:none"
         d="m 3571.24,1002.66 c 28.4,19.18 42.56,48.77 42.56,88.78 0,40.09 -14.16,69.53 -42.56,88.49 -28.39,18.89 -70.2,28.4 -125.35,28.4 H 3234.16 V 973.82 h 211.73 c 55.15,0 96.96,9.59 125.35,28.84 z m -337.08,467.68 v -226.35 h 193.9 c 49.75,0 88.04,9.59 114.79,28.78 26.74,19.25 40.15,47.5 40.15,84.81 0,36.79 -13.41,64.74 -40.15,83.92 -26.75,19.25 -65.04,28.84 -114.79,28.84 z m 389,-287.19 c 21.36,-24.34 32.07,-55.96 32.07,-94.93 0,-48.1 -17.6,-85.19 -52.74,-111.111 -35.15,-26 -87.37,-38.961 -156.6,-38.961 h -253.1 v 567.862 h 236.92 c 61.66,0 109.61,-12.59 143.93,-37.69 34.39,-25.18 51.55,-60.99 51.55,-107.52 0,-32.44 -8.54,-59.79 -25.55,-81.89 -17.01,-22.18 -40.16,-38.14 -69.38,-47.88 40.61,-7.57 71.55,-23.52 92.9,-47.88" /><path
         id="path16"
         style="fill:#43b2c6;fill-opacity:1;fill-rule:nonzero;stroke:none"
         d="m 4005.66,1506.01 h 41.36 V 975.469 h 326.97 v -37.321 h -368.33 v 567.862" /><path
         id="path18"
         style="fill:#43b2c6;fill-opacity:1;fill-rule:nonzero;stroke:none"
         d="m 4683.06,1506.01 h 41.35 V 938.148 h -41.35 v 567.862" /><path
         id="path20"
         style="fill:#43b2c6;fill-opacity:1;fill-rule:nonzero;stroke:none"
         d="m 5233.91,1468.7 h -204.48 v 37.31 h 450.3 V 1468.7 H 5275.26 V 938.148 h -41.35 V 1468.7" /><path
         id="path22"
         style="fill:#43b2c6;fill-opacity:1;fill-rule:nonzero;stroke:none"
         d="m 6181.48,975.469 v -37.321 h -457.56 v 29.223 l 391.85,501.329 h -386.98 v 37.31 h 443.78 v -29.22 L 5781.53,975.469 h 399.95" /><path
         id="path24"
         style="fill:#f1419a;fill-opacity:1;fill-rule:nonzero;stroke:none"
         d="m 6847.49,1111.75 c 0,38.43 -28.17,57.62 -84.36,57.62 h -134.72 v -115.24 h 134.72 c 56.19,0 84.36,19.19 84.36,57.62 z m -219.08,278.27 v -109.54 h 110.37 c 54.01,0 81.06,18.43 81.06,55.22 0,36.19 -27.05,54.32 -81.06,54.32 z m 353.72,-208.89 c 18.36,-24.05 27.58,-53.12 27.58,-87.22 0,-49.74 -20.01,-88.18 -60.02,-115.23 -40.01,-27.039 -97.93,-40.532 -173.61,-40.532 h -306.66 v 567.862 h 290.4 c 72.47,0 127.68,-13.34 165.52,-40.16 37.83,-26.75 56.79,-62.86 56.79,-108.27 0,-27.05 -6.67,-51.25 -19.85,-72.6 -13.27,-21.35 -32.07,-38.29 -56.42,-50.72 32.44,-11.4 57.84,-29.08 76.27,-53.13" /><path
         id="path26"
         style="fill:#f1419a;fill-opacity:1;fill-rule:nonzero;stroke:none"
         d="m 7361.41,995.77 c -46.84,45.93 -70.21,111.11 -70.21,195.48 v 314.76 h 160.64 v -309.89 c 0,-90.89 35.96,-136.29 107.89,-136.29 71.4,0 107.07,45.4 107.07,136.29 v 309.89 h 158.16 v -314.76 c 0,-84.37 -23.37,-149.55 -70.13,-195.48 -46.82,-46.008 -112.38,-69 -196.75,-69 -84.37,0 -149.93,22.992 -196.67,69" /><path
         id="path28"
         style="fill:#f1419a;fill-opacity:1;fill-rule:nonzero;stroke:none"
         d="m 8398.59,1066.35 c 48.7,0 87.74,13.78 117.26,41.35 29.44,27.58 44.21,65.72 44.21,114.42 0,48.62 -14.77,86.76 -44.21,114.33 -29.52,27.57 -68.56,41.43 -117.26,41.43 h -101.37 v -311.53 z m -262.01,439.66 h 268.53 c 62.18,0 117.33,-11.62 165.51,-34.85 48.1,-23.3 85.42,-56.26 111.94,-98.97 26.44,-42.78 39.71,-92.76 39.71,-150.07 0,-57.4 -13.27,-107.38 -39.71,-150.08 -26.52,-42.78 -63.84,-75.751 -111.94,-98.981 -48.18,-23.297 -103.33,-34.911 -165.51,-34.911 h -268.53 v 567.862" /><path
         id="path30"
         style="fill:#f1419a;fill-opacity:1;fill-rule:nonzero;stroke:none"
         d="M 9389.92,1234.26 H 9531.9 V 998.988 c -32.44,-23.226 -69.75,-41.129 -111.93,-53.566 -42.19,-12.442 -84.36,-18.652 -126.55,-18.652 -59.56,0 -113.06,12.57 -160.64,37.75 -47.65,25.171 -84.97,60.17 -111.94,105.05 -27.12,44.88 -40.61,95.75 -40.61,152.55 0,56.79 13.49,107.59 40.61,152.47 26.97,44.88 64.59,79.95 112.76,105.04 48.11,25.18 102.43,37.76 163.04,37.76 52.98,0 100.55,-8.91 142.81,-26.74 42.18,-17.91 77.33,-43.61 105.42,-77.1 l -102.19,-92.46 c -38.44,42.18 -84.37,63.24 -137.94,63.24 -48.63,0 -87.89,-14.76 -117.64,-44.21 -29.75,-29.44 -44.58,-68.85 -44.58,-118 0,-31.4 6.75,-59.42 20.23,-84 13.56,-24.65 32.45,-43.83 56.79,-57.61 24.36,-13.79 52.23,-20.68 83.62,-20.68 30.8,0 59.72,6.21 86.76,18.65 v 155.78" /><path
         id="path32"
         style="fill:#f1419a;fill-opacity:1;fill-rule:nonzero;stroke:none"
         d="M 10292.9,1062.3 V 938.148 h -455.98 v 567.862 h 445.38 v -124.08 h -286.38 v -95.76 h 252.28 V 1166.15 H 9995.92 V 1062.3 h 296.98" /><path
         id="path34"
         style="fill:#f1419a;fill-opacity:1;fill-rule:nonzero;stroke:none"
         d="m 10705.8,1378.64 h -174.5 v 127.37 h 508.7 v -127.37 h -173.6 V 938.148 h -160.6 v 440.492" /><path
         id="path36"
         style="fill:#f1419a;fill-opacity:1;fill-rule:nonzero;stroke:none"
         d="M 197.598,98.8008 C 197.598,44.2305 153.363,0 98.7969,0 44.2344,0 0,44.2305 0,98.8008 c 0,54.5582 44.2344,98.8012 98.7969,98.8012 54.5661,0 98.8011,-44.243 98.8011,-98.8012" /><path
         id="path38"
         style="fill:#f1419a;fill-opacity:1;fill-rule:nonzero;stroke:none"
         d="m 1866.07,1303.44 c -54.56,0 -98.79,-44.23 -98.79,-98.79 0,-5.74 0.75,-11.26 1.68,-16.73 l -430.2,-358.111 c -12.66,5.89 -26.63,9.429 -41.5,9.429 -14.93,0 -28.93,-3.558 -41.61,-9.476 L 815.414,1195.54 c 0.285,3.05 0.918,5.99 0.918,9.11 0,54.56 -44.23,98.79 -98.797,98.79 -54.566,0 -98.801,-44.23 -98.801,-98.79 0,-18.15 5.246,-34.94 13.786,-49.55 L 61.8867,119.129 135.703,78.4688 702.449,1107.37 c 4.953,-0.77 9.918,-1.52 15.086,-1.52 20.07,0 38.688,6.06 54.278,16.34 L 1201.87,764.891 c -2.01,-7.86 -3.41,-15.969 -3.41,-24.461 0,-54.559 44.23,-98.789 98.8,-98.789 54.56,0 98.79,44.23 98.79,98.789 0,8.519 -1.41,16.648 -3.44,24.531 l 425.19,353.969 c 14.33,-8.09 30.65,-13.08 48.27,-13.08 54.57,0 98.8,44.23 98.8,98.8 0,54.56 -44.23,98.79 -98.8,98.79" /><path
         id="path40"
         style="fill:#f1419a;fill-opacity:1;fill-rule:nonzero;stroke:none"
         d="m 2233.55,1045.84 c -49.76,64.93 -111.34,119.06 -184.78,162.5 0.02,-1.26 0.37,-2.43 0.37,-3.7 0,-100.93 -82.13,-183.06 -183.07,-183.06 -10.12,0 -20.28,0.9 -30.32,2.63 L 1479.91,727.988 c -6.42,-95.168 -85.88,-170.636 -182.65,-170.636 -96.7,0 -176.16,75.378 -182.66,170.476 L 756.086,1025.69 c -0.906,-0.2 -1.813,-0.41 -2.719,-0.58 L 272.82,152.719 c 5.344,-17.16 9.039,-35.028 9.039,-53.9104 C 281.859,62.3594 270.875,28.5508 252.441,0 H 1346.7 c 325.72,0 575,58.0391 747.22,174.461 172.21,116.43 258.31,281.867 258.31,496 0,146.73 -39.66,271.848 -118.68,375.379" /><path
         id="path42"
         style="fill:#43b2c6;fill-opacity:1;fill-rule:nonzero;stroke:none"
         d="m 1989.11,2271.3 c -162.86,115.45 -400.54,172.86 -712.39,172.86 H 26.7422 V 266.988 c 7.8906,3.403 16.3203,5.621 24.7305,7.891 L 539.813,1161.43 c -3.54,14.16 -5.348,28.68 -5.348,43.21 0,100.93 82.133,183.07 183.062,183.07 90.032,0 165.086,-65.31 180.27,-151.06 L 1276.15,922.289 c 6.99,0.82 14.03,1.231 21.11,1.231 6.99,0 13.99,-0.411 20.9,-1.231 l 366.25,304.901 c 11.11,90.32 88.34,160.52 181.66,160.52 51.38,0 97.71,-21.43 130.99,-55.63 61.16,44.89 112.09,98.03 151.04,160.73 56.75,91.91 85.45,196.07 85.45,312.49 0,195.43 -81.58,350.88 -244.44,466" /></g></g></svg>